<?xml version="1.0" encoding="UTF-8"?>
<!DOCTYPE svg PUBLIC "-//W3C//DTD SVG 1.1//EN" "http://www.w3.org/Graphics/SVG/1.1/DTD/svg11.dtd">
<svg xmlns="http://www.w3.org/2000/svg" version="1.1" width="2133px" height="2133px" style="shape-rendering:geometricPrecision; text-rendering:geometricPrecision; image-rendering:optimizeQuality; fill-rule:evenodd; clip-rule:evenodd" xmlns:xlink="http://www.w3.org/1999/xlink">
<g><path style="opacity:0.998" fill="#000000" d="M 1000.5,-0.5 C 1018.5,-0.5 1036.5,-0.5 1054.5,-0.5C 1324.32,0.250354 1561.32,87.7504 1765.5,262C 1942.08,419.22 2055.92,614.054 2107,846.5C 2123.69,919.569 2130.52,993.569 2127.5,1068.5C 2127.54,1098.18 2127.04,1127.84 2126,1157.5C 2108.12,1346.18 2046.12,1518.51 1940,1674.5C 1819.87,1843.5 1664.37,1968.66 1473.5,2050C 1374.16,2091.67 1270.83,2117.33 1163.5,2127C 838.602,2151.5 557.935,2053.16 321.5,1832C 163.603,1676.77 62.1029,1489.93 17,1271.5C 6.43603,1223.25 0.602692,1174.58 -0.5,1125.5C -0.5,1085.5 -0.5,1045.5 -0.5,1005.5C 13.7524,780.179 89.9191,578.846 228,401.5C 284.973,333.859 347.806,272.359 416.5,217C 589.485,87.7319 784.152,15.2319 1000.5,-0.5 Z"/></g>
<g><path style="opacity:1" fill="#fefefe" d="M 862.5,413.5 C 1010.5,413.261 1158.5,413.761 1306.5,415C 1365.3,413.01 1422.63,421.01 1478.5,439C 1597.43,480.266 1673.26,561.766 1706,683.5C 1712.28,706.758 1715.94,730.425 1717,754.5C 1718.9,797.811 1719.9,841.144 1720,884.5C 1720.82,1033.17 1720.49,1181.84 1719,1330.5C 1720.73,1413.26 1699.73,1489.59 1656,1559.5C 1617.37,1616.11 1566.21,1657.28 1502.5,1683C 1457.47,1700.67 1410.81,1711.34 1362.5,1715C 1262.85,1717.02 1163.18,1717.86 1063.5,1717.5C 993.833,1717.33 924.167,1717.17 854.5,1717C 819.154,1716.41 783.82,1715.41 748.5,1714C 675.467,1706.44 608.8,1682.11 548.5,1641C 498.398,1603.97 461.898,1556.47 439,1498.5C 417.121,1445.36 407.121,1390.02 409,1332.5C 406.55,1182.84 405.883,1033.18 407,883.5C 407.773,843.827 408.773,804.161 410,764.5C 414.104,679.831 442.437,604.498 495,538.5C 535.435,494.508 583.935,462.341 640.5,442C 680.26,427.429 721.26,418.763 763.5,416C 796.664,415.213 829.664,414.38 862.5,413.5 Z"/></g>
<g><path style="opacity:1" fill="#000000" d="M 991.5,535.5 C 1117.2,535.053 1242.87,536.886 1368.5,541C 1418.99,544.272 1464.66,560.606 1505.5,590C 1560.79,637.735 1591.29,698.235 1597,771.5C 1598.1,870.328 1598.6,969.162 1598.5,1068C 1598.33,1150.5 1598.17,1233 1598,1315.5C 1602.85,1395.95 1578.19,1465.62 1524,1524.5C 1504.47,1543.69 1481.97,1558.53 1456.5,1569C 1434.55,1579.14 1411.55,1585.48 1387.5,1588C 1353.55,1590.69 1319.55,1592.35 1285.5,1593C 1152.17,1594.52 1018.84,1594.86 885.5,1594C 851.499,1593.02 817.499,1592.02 783.5,1591C 653.04,1589.23 570.207,1525.73 535,1400.5C 531.549,1384.01 529.882,1367.34 530,1350.5C 528.38,1173.84 528.047,997.173 529,820.5C 522.915,744.435 543.915,677.102 592,618.5C 614.125,592.844 640.959,573.677 672.5,561C 705.641,546.717 740.307,539.717 776.5,540C 848.312,537.55 919.978,536.05 991.5,535.5 Z"/></g>
<g><path style="opacity:1" fill="#fdfdfd" d="M 1402.5,652.5 C 1437.34,650.171 1462.18,664.838 1477,696.5C 1487.89,736.218 1475.06,765.051 1438.5,783C 1406.34,795.308 1379.17,788.475 1357,762.5C 1346.08,745.795 1342.08,727.461 1345,707.5C 1349.26,683.904 1362.43,667.404 1384.5,658C 1390.53,655.84 1396.53,654.006 1402.5,652.5 Z"/></g>
<g><path style="opacity:1" fill="#fefefe" d="M 1038.5,720.5 C 1138.82,714.991 1226.16,745.491 1300.5,812C 1382.06,892.331 1417.56,989.831 1407,1104.5C 1391.46,1222.62 1332.29,1311.12 1229.5,1370C 1146.88,1412.27 1060.55,1421.93 970.5,1399C 855.078,1364.58 776.911,1290.74 736,1177.5C 703.432,1074.16 714.432,975.83 769,882.5C 832.349,784.891 922.183,730.891 1038.5,720.5 Z"/></g>
<g><path style="opacity:1" fill="#000000" d="M 1054.5,843.5 C 1132.28,842.146 1195.11,871.813 1243,932.5C 1284.15,992.813 1295.48,1058.48 1277,1129.5C 1251.91,1206.26 1200.74,1256.43 1123.5,1280C 1065.87,1294.44 1010.53,1288.44 957.5,1262C 881.194,1217.58 842.527,1150.91 841.5,1062C 843.135,990.064 872.135,932.064 928.5,888C 956.166,867.838 986.833,854.172 1020.5,847C 1031.95,845.5 1043.29,844.333 1054.5,843.5 Z"/></g>
</svg>
