<?xml version="1.0" encoding="UTF-8"?>
<!DOCTYPE svg PUBLIC "-//W3C//DTD SVG 1.1//EN" "http://www.w3.org/Graphics/SVG/1.1/DTD/svg11.dtd">
<svg xmlns="http://www.w3.org/2000/svg" version="1.1" width="2133px" height="2133px" style="shape-rendering:geometricPrecision; text-rendering:geometricPrecision; image-rendering:optimizeQuality; fill-rule:evenodd; clip-rule:evenodd" xmlns:xlink="http://www.w3.org/1999/xlink">
<g><path style="opacity:0.999" fill="#000000" d="M -0.5,1090.5 C -0.5,1070.83 -0.5,1051.17 -0.5,1031.5C 12.1433,746.465 118.81,503.632 319.5,303C 503.73,125.711 724.063,25.3777 980.5,2C 1055,-0.873882 1129.33,1.45945 1203.5,9C 1314.44,23.3149 1420.1,54.9816 1520.5,104C 1621.36,151.561 1712.36,213.228 1793.5,289C 1981.06,465.613 2091.9,682.446 2126,939.5C 2153.6,1226.86 2080.93,1485.19 1908,1714.5C 1856.67,1777.5 1800.17,1835.66 1738.5,1889C 1569.5,2025.72 1376.16,2105.39 1158.5,2128C 890.494,2148.43 648.161,2080.1 431.5,1923C 347.59,1858.42 273.756,1783.92 210,1699.5C 123.83,1580.8 63.1638,1449.8 28,1306.5C 11.5133,1235.27 2.01335,1163.27 -0.5,1090.5 Z"/></g>
<g><path style="opacity:1" fill="#fefefe" d="M 1020.5,376.5 C 1171.52,366.588 1310.86,401.755 1438.5,482C 1576.75,574.658 1670.58,700.825 1720,860.5C 1740.22,931.791 1752.22,1004.46 1756,1078.5C 1756.77,1102.85 1756.43,1127.18 1755,1151.5C 1743.07,1235.37 1700.91,1298.87 1628.5,1342C 1561.87,1377.96 1492.87,1383.3 1421.5,1358C 1388.19,1345 1358.86,1326 1333.5,1301C 1323.32,1290.65 1312.99,1280.49 1302.5,1270.5C 1279.68,1293.22 1254.68,1313.06 1227.5,1330C 1142.52,1378.5 1053.86,1386.5 961.5,1354C 886.769,1323.94 830.269,1273.44 792,1202.5C 765.532,1151.38 754.866,1097.05 760,1039.5C 761.681,996.106 773.014,955.439 794,917.5C 849.592,818.006 934.425,762.506 1048.5,751C 1100.8,748.272 1150.8,757.605 1198.5,779C 1217.13,788.225 1235.29,798.059 1253,808.5C 1254.11,808.415 1255.11,808.081 1256,807.5C 1262.25,781.126 1277.75,762.626 1302.5,752C 1330.79,746.431 1353.96,754.931 1372,777.5C 1376.57,786.598 1378.91,796.265 1379,806.5C 1380.45,840.151 1381.45,873.817 1382,907.5C 1382.58,975.84 1383.58,1044.17 1385,1112.5C 1384.99,1130.35 1386.66,1148.01 1390,1165.5C 1405.32,1202.82 1431.82,1228.65 1469.5,1243C 1519.32,1255.92 1562.49,1244.42 1599,1208.5C 1623.83,1179.33 1634.67,1145.5 1631.5,1107C 1630.06,1036.48 1619.9,967.317 1601,899.5C 1571.22,799.379 1518.72,713.546 1443.5,642C 1346.96,555.893 1233.62,508.893 1103.5,501C 930.265,494.497 783.432,552.997 663,676.5C 533.799,818.503 486.132,984.503 520,1174.5C 545.899,1295.17 604.399,1396.67 695.5,1479C 800.803,1572.52 924.303,1620.69 1066,1623.5C 1176.55,1624.07 1278.38,1594.91 1371.5,1536C 1388,1525.58 1404.34,1514.92 1420.5,1504C 1440.54,1492.73 1460.54,1493.06 1480.5,1505C 1509.5,1525.34 1518,1552.17 1506,1585.5C 1500.59,1594.25 1493.75,1601.75 1485.5,1608C 1376.16,1691.35 1252.49,1737.69 1114.5,1747C 909.612,1756.28 733.612,1690.28 586.5,1549C 446.97,1405.33 379.47,1232.83 384,1031.5C 395.591,846.187 467.758,689.354 600.5,561C 719.133,451.872 859.133,390.372 1020.5,376.5 Z"/></g>
<g><path style="opacity:1" fill="#000000" d="M 1051.5,875.5 C 1129.62,872.135 1189.45,903.135 1231,968.5C 1263.9,1028.31 1264.9,1088.64 1234,1149.5C 1194.07,1216.56 1134.9,1249.39 1056.5,1248C 992.749,1240.9 943.915,1210.4 910,1156.5C 869.631,1081.71 875.298,1010.71 927,943.5C 959.722,904.723 1001.22,882.057 1051.5,875.5 Z"/></g>
</svg>
