<?xml version="1.0" encoding="UTF-8"?>
<!DOCTYPE svg PUBLIC "-//W3C//DTD SVG 1.1//EN" "http://www.w3.org/Graphics/SVG/1.1/DTD/svg11.dtd">
<svg xmlns="http://www.w3.org/2000/svg" version="1.1" width="2133px" height="2133px" style="shape-rendering:geometricPrecision; text-rendering:geometricPrecision; image-rendering:optimizeQuality; fill-rule:evenodd; clip-rule:evenodd" xmlns:xlink="http://www.w3.org/1999/xlink">
<g><path style="opacity:0.999" fill="#000000" d="M -0.5,1091.5 C -0.5,1074.5 -0.5,1057.5 -0.5,1040.5C 11.8903,729.933 132.89,471.099 362.5,264C 533.923,116.17 732.923,29.5034 959.5,4C 1171.27,-15.7108 1371.61,22.9558 1560.5,120C 1697.56,193.538 1814.39,291.705 1911,414.5C 2033.98,575.657 2106.31,757.657 2128,960.5C 2148.87,1204.23 2095.2,1429.89 1967,1637.5C 1845.29,1824.88 1681.79,1962.71 1476.5,2051C 1281.18,2131.25 1079.51,2152.58 871.5,2115C 613.769,2063.34 401.603,1936.84 235,1735.5C 85.8859,1547.38 7.38591,1332.72 -0.5,1091.5 Z"/></g>
<g><path style="opacity:1" fill="#fefefe" d="M 1489.5,642.5 C 1520.2,637.6 1542.37,648.934 1556,676.5C 1557.31,680.42 1558.31,684.42 1559,688.5C 1559.89,710.213 1559.22,731.88 1557,753.5C 1543.72,860.459 1528.39,967.126 1511,1073.5C 1489.4,1208.12 1466.4,1342.45 1442,1476.5C 1437.8,1501.99 1430.8,1526.65 1421,1550.5C 1415.12,1563.11 1407.62,1574.61 1398.5,1585C 1394.03,1589.4 1389.03,1593.07 1383.5,1596C 1380.83,1596.67 1378.17,1597.33 1375.5,1598C 1345.66,1603.3 1317.99,1597.96 1292.5,1582C 1169.25,1503.22 1048.25,1421.22 929.5,1336C 918.408,1325.57 910.575,1313.07 906,1298.5C 904.073,1287.21 906.406,1276.88 913,1267.5C 920.24,1256.92 928.24,1246.92 937,1237.5C 956.167,1218.33 975.333,1199.17 994.5,1180C 1085.18,1096.32 1174.35,1010.82 1262,923.5C 1267.66,917.499 1272.33,910.832 1276,903.5C 1278.45,892.619 1274.28,885.786 1263.5,883C 1259.5,882.333 1255.5,882.333 1251.5,883C 1242.55,887.143 1233.88,891.81 1225.5,897C 1086.5,988.667 947.5,1080.33 808.5,1172C 784.767,1187.2 760.101,1200.87 734.5,1213C 711.835,1221.48 688.502,1223.82 664.5,1220C 587.552,1205.91 512.552,1184.91 439.5,1157C 430.827,1153 422.827,1148 415.5,1142C 402.613,1128.71 401.113,1114.21 411,1098.5C 418.328,1089.83 426.828,1082.66 436.5,1077C 446.562,1071.97 456.562,1066.97 466.5,1062C 712.905,953.797 960.238,847.797 1208.5,744C 1274.02,716.824 1340.02,690.824 1406.5,666C 1433.7,655.983 1461.36,648.15 1489.5,642.5 Z"/></g>
</svg>
